<?xml version="1.0" standalone="no"?>
<!DOCTYPE svg PUBLIC "-//W3C//DTD SVG 20010904//EN"
 "http://www.w3.org/TR/2001/REC-SVG-20010904/DTD/svg10.dtd">
<svg version="1.0" xmlns="http://www.w3.org/2000/svg"
 width="600.000000pt" height="600.000000pt" viewBox="0 0 600.000000 600.000000"
 preserveAspectRatio="xMidYMid meet">
<metadata>
Created by potrace 1.14, written by Peter Selinger 2001-2017
</metadata>
<g transform="translate(0.000000,600.000000) scale(0.100000,-0.100000)"
fill="#000000" stroke="none">
<path d="M0 3000 l0 -3000 3000 0 3000 0 0 3000 0 3000 -3000 0 -3000 0 0
-3000z m3110 855 l0 -825 827 0 826 0 -6 -104 c-14 -216 -70 -424 -173 -631
-83 -169 -173 -294 -309 -430 -332 -333 -775 -504 -1244 -482 -236 12 -436 64
-656 173 -169 83 -294 173 -430 309 -440 439 -594 1074 -405 1670 42 134 145
339 227 455 135 189 350 379 560 492 212 115 499 193 721 197 l62 1 0 -825z"/>
<path d="M2704 4316 c-223 -73 -378 -169 -544 -335 -243 -244 -370 -520 -396
-860 l-7 -91 527 0 526 0 0 660 c0 363 -1 660 -2 660 -2 -1 -49 -16 -104 -34z"/>
<path d="M1795 2718 c91 -293 172 -441 337 -614 180 -187 368 -301 626 -377
l52 -16 0 510 0 509 -510 0 c-403 0 -509 -3 -505 -12z"/>
<path d="M3110 2204 l0 -527 92 7 c321 24 605 150 834 368 187 180 301 368
377 626 l16 52 -660 0 -659 0 0 -526z"/>
</g>
</svg>
